P1
8 8
00000000
00100010
01001100
00001100
00110000
00110010
01000100
00000000
