P1
16 16
0000000000000000
0010001000100010
0100110001001100
0000110000001100
0011000011110000
0011001011110010
0100010011110100
0000000011110000
0000111100000000
0010111100100010
0100111101001100
0000111100001100
0011000000110000
0011001000110010
0100010001000100
0000000000000000
