P1
16 16
0000111100000000
0000101000000000
0000001100000000
0000001000000000
1111111100000000
1010101000000000
0011001100000000
0010001000000000
0000111100001111
0000101000001010
0000001100000011
0000001000000010
1111111111111111
1010101010101010
0011001100110011
0010001000100010
